<svg width="25" height="24" viewBox="0 0 25 24" fill="none" xmlns="http://www.w3.org/2000/svg">
<path d="M20.9307 5.25H3.87604" stroke="#B0B0BF" stroke-width="1.5" stroke-linecap="round" stroke-linejoin="round"/>
<path d="M10.0778 9.75V15.75" stroke="#B0B0BF" stroke-width="1.5" stroke-linecap="round" stroke-linejoin="round"/>
<path d="M14.729 9.75V15.75" stroke="#B0B0BF" stroke-width="1.5" stroke-linecap="round" stroke-linejoin="round"/>
<path d="M19.3803 5.25V19.5C19.3803 19.6989 19.2986 19.8897 19.1532 20.0303C19.0078 20.171 18.8106 20.25 18.6051 20.25H6.20166C5.99607 20.25 5.79889 20.171 5.65351 20.0303C5.50813 19.8897 5.42645 19.6989 5.42645 19.5V5.25" stroke="#B0B0BF" stroke-width="1.5" stroke-linecap="round" stroke-linejoin="round"/>
<path d="M16.2795 5.25V3.75C16.2795 3.35218 16.1161 2.97064 15.8254 2.68934C15.5346 2.40804 15.1402 2.25 14.729 2.25H10.0778C9.66657 2.25 9.27221 2.40804 8.98145 2.68934C8.69069 2.97064 8.52734 3.35218 8.52734 3.75V5.25" stroke="#B0B0BF" stroke-width="1.5" stroke-linecap="round" stroke-linejoin="round"/>
</svg>
